<mxfile host="app.diagrams.net" modified="2025-01-15T00:00:00.000Z" agent="5.0" version="24.0.0">
  <diagram name="NST Stack Architecture" id="nst-stack">
    <mxGraphModel dx="1422" dy="794" grid="1" gridSize="10" guides="1" tooltips="1" connect="1" arrows="1" fold="1" page="1" pageScale="1" pageWidth="1169" pageHeight="827" math="0" shadow="0">
      <root>
        <mxCell id="0" />
        <mxCell id="1" parent="0" />
        
        <!-- Title -->
        <mxCell id="title" value="NST Stack Architecture" style="text;html=1;strokeColor=none;fillColor=none;align=center;verticalAlign=middle;whiteSpace=wrap;rounded=0;fontSize=24;fontStyle=1" vertex="1" parent="1">
          <mxGeometry x="400" y="20" width="400" height="40" as="geometry" />
        </mxCell>
        
        <!-- Client Layer -->
        <mxCell id="client-layer" value="Client Browser Layer" style="rounded=1;whiteSpace=wrap;html=1;fillColor=#dae8fc;strokeColor=#6c8ebf;fontSize=16;fontStyle=1;verticalAlign=top;spacingTop=10;" vertex="1" parent="1">
          <mxGeometry x="80" y="100" width="1000" height="120" as="geometry" />
        </mxCell>
        
        <mxCell id="ui-components" value="UI Components&#xa;(Shadcn UI)" style="rounded=1;whiteSpace=wrap;html=1;fillColor=#fff2cc;strokeColor=#d6b656;" vertex="1" parent="1">
          <mxGeometry x="120" y="150" width="200" height="50" as="geometry" />
        </mxCell>
        
        <mxCell id="tailwind" value="Tailwind CSS&#xa;(Styling)" style="rounded=1;whiteSpace=wrap;html=1;fillColor=#fff2cc;strokeColor=#d6b656;" vertex="1" parent="1">
          <mxGeometry x="360" y="150" width="200" height="50" as="geometry" />
        </mxCell>
        
        <mxCell id="tanstack" value="TanStack Query&#xa;(State Management)" style="rounded=1;whiteSpace=wrap;html=1;fillColor=#fff2cc;strokeColor=#d6b656;" vertex="1" parent="1">
          <mxGeometry x="600" y="150" width="200" height="50" as="geometry" />
        </mxCell>
        
        <mxCell id="react" value="React 19&#xa;(Components)" style="rounded=1;whiteSpace=wrap;html=1;fillColor=#fff2cc;strokeColor=#d6b656;" vertex="1" parent="1">
          <mxGeometry x="840" y="150" width="200" height="50" as="geometry" />
        </mxCell>
        
        <!-- Next.js Layer -->
        <mxCell id="nextjs-layer" value="Next.js App Router Layer" style="rounded=1;whiteSpace=wrap;html=1;fillColor=#d5e8d4;strokeColor=#82b366;fontSize=16;fontStyle=1;verticalAlign=top;spacingTop=10;" vertex="1" parent="1">
          <mxGeometry x="80" y="280" width="1000" height="180" as="geometry" />
        </mxCell>
        
        <mxCell id="server-components" value="Server Components&#xa;(page.tsx)&#xa;&#xa;â€¢ SSR/SSG&#xa;â€¢ Initial Data Fetch" style="rounded=1;whiteSpace=wrap;html=1;fillColor=#e1d5e7;strokeColor=#9673a6;align=left;spacingLeft=10;" vertex="1" parent="1">
          <mxGeometry x="120" y="330" width="200" height="100" as="geometry" />
        </mxCell>
        
        <mxCell id="server-actions" value="Server Actions&#xa;(actions.ts)&#xa;&#xa;â€¢ CRUD Operations&#xa;â€¢ Type-safe RPC" style="rounded=1;whiteSpace=wrap;html=1;fillColor=#e1d5e7;strokeColor=#9673a6;align=left;spacingLeft=10;" vertex="1" parent="1">
          <mxGeometry x="360" y="330" width="200" height="100" as="geometry" />
        </mxCell>
        
        <mxCell id="middleware" value="Middleware&#xa;(middleware.ts)&#xa;&#xa;â€¢ Auth Check&#xa;â€¢ i18n Routing" style="rounded=1;whiteSpace=wrap;html=1;fillColor=#e1d5e7;strokeColor=#9673a6;align=left;spacingLeft=10;" vertex="1" parent="1">
          <mxGeometry x="600" y="330" width="200" height="100" as="geometry" />
        </mxCell>
        
        <mxCell id="features" value="Features&#xa;&#xa;â€¢ employees/&#xa;â€¢ prizes/&#xa;â€¢ login/" style="rounded=1;whiteSpace=wrap;html=1;fillColor=#e1d5e7;strokeColor=#9673a6;align=left;spacingLeft=10;" vertex="1" parent="1">
          <mxGeometry x="840" y="330" width="200" height="100" as="geometry" />
        </mxCell>
        
        <!-- Supabase Layer -->
        <mxCell id="supabase-layer" value="Supabase Backend Layer" style="rounded=1;whiteSpace=wrap;html=1;fillColor=#ffe6cc;strokeColor=#d79b00;fontSize=16;fontStyle=1;verticalAlign=top;spacingTop=10;" vertex="1" parent="1">
          <mxGeometry x="80" y="520" width="1000" height="180" as="geometry" />
        </mxCell>
        
        <mxCell id="postgresql" value="PostgreSQL&#xa;&#xa;â€¢ Tables &amp; Views&#xa;â€¢ Row Level Security&#xa;â€¢ Triggers" style="rounded=1;whiteSpace=wrap;html=1;fillColor=#f8cecc;strokeColor=#b85450;align=left;spacingLeft=10;" vertex="1" parent="1">
          <mxGeometry x="120" y="570" width="200" height="100" as="geometry" />
        </mxCell>
        
        <mxCell id="auth" value="Authentication&#xa;&#xa;â€¢ JWT Sessions&#xa;â€¢ Email/Password&#xa;â€¢ Cookie Storage" style="rounded=1;whiteSpace=wrap;html=1;fillColor=#f8cecc;strokeColor=#b85450;align=left;spacingLeft=10;" vertex="1" parent="1">
          <mxGeometry x="360" y="570" width="200" height="100" as="geometry" />
        </mxCell>
        
        <mxCell id="storage" value="Storage&#xa;&#xa;â€¢ Private Buckets&#xa;â€¢ Signed URLs&#xa;â€¢ Image Optimization" style="rounded=1;whiteSpace=wrap;html=1;fillColor=#f8cecc;strokeColor=#b85450;align=left;spacingLeft=10;" vertex="1" parent="1">
          <mxGeometry x="600" y="570" width="200" height="100" as="geometry" />
        </mxCell>
        
        <mxCell id="realtime" value="Realtime&#xa;(Optional)&#xa;&#xa;â€¢ Subscriptions&#xa;â€¢ Live Updates" style="rounded=1;whiteSpace=wrap;html=1;fillColor=#f8cecc;strokeColor=#b85450;align=left;spacingLeft=10;" vertex="1" parent="1">
          <mxGeometry x="840" y="570" width="200" height="100" as="geometry" />
        </mxCell>
        
        <!-- Arrows -->
        <mxCell id="arrow1" style="edgeStyle=orthogonalEdgeStyle;rounded=0;orthogonalLoop=1;jettySize=auto;html=1;strokeWidth=2;fillColor=#dae8fc;strokeColor=#6c8ebf;" edge="1" parent="1" source="ui-components" target="server-components">
          <mxGeometry relative="1" as="geometry" />
        </mxCell>
        
        <mxCell id="arrow2" style="edgeStyle=orthogonalEdgeStyle;rounded=0;orthogonalLoop=1;jettySize=auto;html=1;strokeWidth=2;fillColor=#dae8fc;strokeColor=#6c8ebf;" edge="1" parent="1" source="tanstack" target="server-actions">
          <mxGeometry relative="1" as="geometry" />
        </mxCell>
        
        <mxCell id="arrow3" style="edgeStyle=orthogonalEdgeStyle;rounded=0;orthogonalLoop=1;jettySize=auto;html=1;strokeWidth=2;fillColor=#d5e8d4;strokeColor=#82b366;" edge="1" parent="1" source="server-components" target="postgresql">
          <mxGeometry relative="1" as="geometry" />
        </mxCell>
        
        <mxCell id="arrow4" style="edgeStyle=orthogonalEdgeStyle;rounded=0;orthogonalLoop=1;jettySize=auto;html=1;strokeWidth=2;fillColor=#d5e8d4;strokeColor=#82b366;" edge="1" parent="1" source="server-actions" target="auth">
          <mxGeometry relative="1" as="geometry" />
        </mxCell>
        
        <mxCell id="arrow5" style="edgeStyle=orthogonalEdgeStyle;rounded=0;orthogonalLoop=1;jettySize=auto;html=1;strokeWidth=2;fillColor=#d5e8d4;strokeColor=#82b366;" edge="1" parent="1" source="middleware" target="storage">
          <mxGeometry relative="1" as="geometry" />
        </mxCell>
        
        <!-- Legend -->
        <mxCell id="legend" value="Legend" style="rounded=0;whiteSpace=wrap;html=1;fillColor=#f5f5f5;strokeColor=#666666;fontSize=14;fontStyle=1;align=left;verticalAlign=top;spacingTop=5;spacingLeft=10;" vertex="1" parent="1">
          <mxGeometry x="80" y="730" width="300" height="80" as="geometry" />
        </mxCell>
        
        <mxCell id="legend-client" value="ðŸ”µ Client-side (Browser)" style="text;html=1;strokeColor=none;fillColor=none;align=left;verticalAlign=middle;whiteSpace=wrap;rounded=0;" vertex="1" parent="1">
          <mxGeometry x="100" y="750" width="200" height="20" as="geometry" />
        </mxCell>
        
        <mxCell id="legend-server" value="ðŸŸ¢ Server-side (Next.js)" style="text;html=1;strokeColor=none;fillColor=none;align=left;verticalAlign=middle;whiteSpace=wrap;rounded=0;" vertex="1" parent="1">
          <mxGeometry x="100" y="770" width="200" height="20" as="geometry" />
        </mxCell>
        
        <mxCell id="legend-backend" value="ðŸŸ  Backend (Supabase)" style="text;html=1;strokeColor=none;fillColor=none;align=left;verticalAlign=middle;whiteSpace=wrap;rounded=0;" vertex="1" parent="1">
          <mxGeometry x="100" y="790" width="200" height="20" as="geometry" />
        </mxCell>
        
      </root>
    </mxGraphModel>
  </diagram>
</mxfile>
